<svg width="83" height="18" viewBox="0 0 83 18" fill="none" xmlns="http://www.w3.org/2000/svg">
<rect width="83" height="18" rx="9" fill="#636B2F"/>
<path d="M11.1113 13V5.9541H15.584V6.90137H12.2051V8.95703H15.4033V9.86523H12.2051V12.0527H15.584V13H11.1113ZM19.1289 13L16.624 5.9541H17.8154L19.6953 11.6768H19.7783L21.6582 5.9541H22.8545L20.3447 13H19.1289ZM24.0801 13V5.9541H28.5527V6.90137H25.1738V8.95703H28.3721V9.86523H25.1738V12.0527H28.5527V13H24.0801ZM30.1348 13V5.9541H31.126L35.0127 11.457L34.2656 11.0713H34.8174V5.9541H35.8867V13H34.8955L31.0039 7.50195L31.7559 7.8877H31.1992V13H30.1348ZM39.4414 13V6.90137H37.2246V5.9541H42.752V6.90137H40.5352V13H39.4414ZM49.8174 13.1709C49.1338 13.1709 48.5462 13.0212 48.0547 12.7217C47.5632 12.4189 47.1855 11.9909 46.9219 11.4375C46.6582 10.8841 46.5264 10.2314 46.5264 9.47949V9.46973C46.5264 8.71126 46.6598 8.05697 46.9268 7.50684C47.1937 6.95671 47.5729 6.5319 48.0645 6.23242C48.5592 5.93294 49.1436 5.7832 49.8174 5.7832C50.4945 5.7832 51.0788 5.93294 51.5703 6.23242C52.0618 6.5319 52.4395 6.95833 52.7031 7.51172C52.9701 8.06185 53.1035 8.71452 53.1035 9.46973V9.47949C53.1035 10.2314 52.9717 10.8841 52.708 11.4375C52.4443 11.9876 52.0651 12.4141 51.5703 12.7168C51.0788 13.0195 50.4945 13.1709 49.8174 13.1709ZM49.8174 12.1992C50.2601 12.1992 50.6442 12.0869 50.9697 11.8623C51.2952 11.6377 51.5459 11.3219 51.7217 10.915C51.8975 10.5049 51.9854 10.0264 51.9854 9.47949V9.46973C51.9854 8.91634 51.8975 8.4362 51.7217 8.0293C51.5459 7.6224 51.2952 7.30827 50.9697 7.08691C50.6442 6.86556 50.2601 6.75488 49.8174 6.75488C49.3747 6.75488 48.9906 6.86556 48.665 7.08691C48.3428 7.30827 48.0921 7.6224 47.9131 8.0293C47.734 8.4362 47.6445 8.91634 47.6445 9.46973V9.47949C47.6445 10.0264 47.7308 10.5049 47.9033 10.915C48.0791 11.3219 48.3281 11.6377 48.6504 11.8623C48.9759 12.0869 49.3649 12.1992 49.8174 12.1992ZM55.1348 10.5928V9.6748H57.0586C57.5339 9.6748 57.9017 9.55273 58.1621 9.30859C58.4258 9.0612 58.5576 8.7194 58.5576 8.2832V8.27344C58.5576 7.83073 58.4258 7.4873 58.1621 7.24316C57.9017 6.99902 57.5339 6.87695 57.0586 6.87695H55.1348V5.9541H57.332C57.7943 5.9541 58.1995 6.05176 58.5479 6.24707C58.8994 6.43913 59.1745 6.70931 59.373 7.05762C59.5716 7.40267 59.6709 7.80469 59.6709 8.26367V8.27344C59.6709 8.73242 59.5716 9.1377 59.373 9.48926C59.1745 9.83757 58.8994 10.1094 58.5479 10.3047C58.1995 10.4967 57.7943 10.5928 57.332 10.5928H55.1348ZM54.5879 13V5.9541H55.6816V13H54.5879ZM61.082 13V5.9541H65.5547V6.90137H62.1758V8.95703H65.374V9.86523H62.1758V12.0527H65.5547V13H61.082ZM67.1367 13V5.9541H68.1279L72.0146 11.457L71.2676 11.0713H71.8193V5.9541H72.8887V13H71.8975L68.0059 7.50195L68.7578 7.8877H68.2012V13H67.1367Z" fill="#F3F6E5" style="mix-blend-mode:plus-darker"/>
</svg>
