<svg width="26" height="17" viewBox="0 0 26 17" fill="none" xmlns="http://www.w3.org/2000/svg">
<path d="M23.6364 15V13.5556C23.6364 12.7894 23.3562 12.0546 22.8575 11.5128C22.3589 10.971 21.6825 10.6667 20.9773 10.6667H15.6591C14.9539 10.6667 14.2775 10.971 13.7788 11.5128C13.2802 12.0546 13 12.7894 13 13.5556V15M20.9773 4.88889C20.9773 6.48438 19.7868 7.77778 18.3182 7.77778C16.8496 7.77778 15.6591 6.48438 15.6591 4.88889C15.6591 3.2934 16.8496 2 18.3182 2C19.7868 2 20.9773 3.2934 20.9773 4.88889Z" stroke="#3D4127" stroke-width="4" stroke-linecap="round" stroke-linejoin="round"/>
<path d="M12.6364 15V13.5556C12.6364 12.7894 12.3562 12.0546 11.8575 11.5128C11.3589 10.971 10.6825 10.6667 9.97728 10.6667H4.65909C3.95386 10.6667 3.27751 10.971 2.77883 11.5128C2.28015 12.0546 2 12.7894 2 13.5556V15M9.97728 4.88889C9.97728 6.48438 8.78676 7.77778 7.31818 7.77778C5.84961 7.77778 4.65909 6.48438 4.65909 4.88889C4.65909 3.2934 5.84961 2 7.31818 2C8.78676 2 9.97728 3.2934 9.97728 4.88889Z" stroke="#3D4127" stroke-width="4" stroke-linecap="round" stroke-linejoin="round"/>
</svg>
