<svg width="40" height="40" viewBox="0 0 40 40" fill="none" xmlns="http://www.w3.org/2000/svg">
<g clip-path="url(#clip0_167_1707)">
<path d="M39.6377 31.5217H38.6232C38.5432 31.5217 38.4783 31.5866 38.4783 31.6667V32.6811C38.4783 32.7612 38.5432 32.8261 38.6232 32.8261H39.6377C39.7177 32.8261 39.7826 32.7612 39.7826 32.6811V31.6667C39.7826 31.5866 39.7177 31.5217 39.6377 31.5217Z" stroke="#3D4127" stroke-width="2" stroke-linecap="round" stroke-linejoin="round"/>
</g>
<g clip-path="url(#clip1_167_1707)">
<path d="M32.6811 24.5652H31.6667C31.5866 24.5652 31.5217 24.6301 31.5217 24.7101V25.7246C31.5217 25.8046 31.5866 25.8695 31.6667 25.8695H32.6811C32.7612 25.8695 32.8261 25.8046 32.8261 25.7246V24.7101C32.8261 24.6301 32.7612 24.5652 32.6811 24.5652Z" stroke="#3D4127" stroke-width="2" stroke-linecap="round" stroke-linejoin="round"/>
</g>
<g clip-path="url(#clip2_167_1707)">
<path d="M32.6811 28.0435H31.6667C31.5866 28.0435 31.5217 28.1083 31.5217 28.1884V29.2029C31.5217 29.2829 31.5866 29.3478 31.6667 29.3478H32.6811C32.7612 29.3478 32.8261 29.2829 32.8261 29.2029V28.1884C32.8261 28.1083 32.7612 28.0435 32.6811 28.0435Z" stroke="#3D4127" stroke-width="2" stroke-linecap="round" stroke-linejoin="round"/>
</g>
<g clip-path="url(#clip3_167_1707)">
<path d="M36.1594 28.0435H35.1449C35.0649 28.0435 35 28.1083 35 28.1884V29.2029C35 29.2829 35.0649 29.3478 35.1449 29.3478H36.1594C36.2395 29.3478 36.3043 29.2829 36.3043 29.2029V28.1884C36.3043 28.1083 36.2395 28.0435 36.1594 28.0435Z" stroke="#3D4127" stroke-width="2" stroke-linecap="round" stroke-linejoin="round"/>
</g>
<g clip-path="url(#clip4_167_1707)">
<path d="M36.1594 24.5652H35.1449C35.0649 24.5652 35 24.6301 35 24.7101V25.7246C35 25.8046 35.0649 25.8695 35.1449 25.8695H36.1594C36.2395 25.8695 36.3043 25.8046 36.3043 25.7246V24.7101C36.3043 24.6301 36.2395 24.5652 36.1594 24.5652Z" stroke="#3D4127" stroke-width="2" stroke-linecap="round" stroke-linejoin="round"/>
</g>
<g clip-path="url(#clip5_167_1707)">
<path d="M23.9855 22.826H22.971C22.8909 22.826 22.826 22.8909 22.826 22.971V23.9855C22.826 24.0655 22.8909 24.1304 22.971 24.1304H23.9855C24.0655 24.1304 24.1304 24.0655 24.1304 23.9855V22.971C24.1304 22.8909 24.0655 22.826 23.9855 22.826Z" stroke="#3D4127" stroke-width="2" stroke-linecap="round" stroke-linejoin="round"/>
</g>
<g clip-path="url(#clip6_167_1707)">
<path d="M36.1594 26.3043H35.1449C35.0649 26.3043 35 26.3692 35 26.4492V27.4637C35 27.5438 35.0649 27.6087 35.1449 27.6087H36.1594C36.2395 27.6087 36.3043 27.5438 36.3043 27.4637V26.4492C36.3043 26.3692 36.2395 26.3043 36.1594 26.3043Z" stroke="#3D4127" stroke-width="2" stroke-linecap="round" stroke-linejoin="round"/>
</g>
<g clip-path="url(#clip7_167_1707)">
<path d="M37.8986 26.3043H36.8841C36.804 26.3043 36.7391 26.3692 36.7391 26.4492V27.4637C36.7391 27.5438 36.804 27.6087 36.8841 27.6087H37.8986C37.9786 27.6087 38.0435 27.5438 38.0435 27.4637V26.4492C38.0435 26.3692 37.9786 26.3043 37.8986 26.3043Z" stroke="#3D4127" stroke-width="2" stroke-linecap="round" stroke-linejoin="round"/>
</g>
<g clip-path="url(#clip8_167_1707)">
<path d="M37.8986 28.0435H36.8841C36.804 28.0435 36.7391 28.1083 36.7391 28.1884V29.2029C36.7391 29.2829 36.804 29.3478 36.8841 29.3478H37.8986C37.9786 29.3478 38.0435 29.2829 38.0435 29.2029V28.1884C38.0435 28.1083 37.9786 28.0435 37.8986 28.0435Z" stroke="#3D4127" stroke-width="2" stroke-linecap="round" stroke-linejoin="round"/>
</g>
<g clip-path="url(#clip9_167_1707)">
<path d="M29.2029 33.2609H28.1884C28.1083 33.2609 28.0435 33.3258 28.0435 33.4058V34.4203C28.0435 34.5003 28.1083 34.5652 28.1884 34.5652H29.2029C29.2829 34.5652 29.3478 34.5003 29.3478 34.4203V33.4058C29.3478 33.3258 29.2829 33.2609 29.2029 33.2609Z" stroke="#3D4127" stroke-width="2" stroke-linecap="round" stroke-linejoin="round"/>
</g>
<g clip-path="url(#clip10_167_1707)">
<path d="M37.8986 31.5217H36.8841C36.804 31.5217 36.7391 31.5866 36.7391 31.6667V32.6811C36.7391 32.7612 36.804 32.8261 36.8841 32.8261H37.8986C37.9786 32.8261 38.0435 32.7612 38.0435 32.6811V31.6667C38.0435 31.5866 37.9786 31.5217 37.8986 31.5217Z" stroke="#3D4127" stroke-width="2" stroke-linecap="round" stroke-linejoin="round"/>
</g>
<g clip-path="url(#clip11_167_1707)">
<path d="M34.4203 31.5217H33.4058C33.3258 31.5217 33.2609 31.5866 33.2609 31.6667V32.6811C33.2609 32.7612 33.3258 32.8261 33.4058 32.8261H34.4203C34.5003 32.8261 34.5652 32.7612 34.5652 32.6811V31.6667C34.5652 31.5866 34.5003 31.5217 34.4203 31.5217Z" stroke="#3D4127" stroke-width="2" stroke-linecap="round" stroke-linejoin="round"/>
</g>
<g clip-path="url(#clip12_167_1707)">
<path d="M30.942 31.5217H29.9275C29.8475 31.5217 29.7826 31.5866 29.7826 31.6667V32.6811C29.7826 32.7612 29.8475 32.8261 29.9275 32.8261H30.942C31.0221 32.8261 31.0869 32.7612 31.0869 32.6811V31.6667C31.0869 31.5866 31.0221 31.5217 30.942 31.5217Z" stroke="#3D4127" stroke-width="2" stroke-linecap="round" stroke-linejoin="round"/>
</g>
<g clip-path="url(#clip13_167_1707)">
<path d="M37.8986 29.7826H36.8841C36.804 29.7826 36.7391 29.8475 36.7391 29.9275V30.942C36.7391 31.0221 36.804 31.0869 36.8841 31.0869H37.8986C37.9786 31.0869 38.0435 31.0221 38.0435 30.942V29.9275C38.0435 29.8475 37.9786 29.7826 37.8986 29.7826Z" stroke="#3D4127" stroke-width="2" stroke-linecap="round" stroke-linejoin="round"/>
</g>
<g clip-path="url(#clip14_167_1707)">
<path d="M36.1594 29.7826H35.1449C35.0649 29.7826 35 29.8475 35 29.9275V30.942C35 31.0221 35.0649 31.0869 35.1449 31.0869H36.1594C36.2395 31.0869 36.3043 31.0221 36.3043 30.942V29.9275C36.3043 29.8475 36.2395 29.7826 36.1594 29.7826Z" stroke="#3D4127" stroke-width="2" stroke-linecap="round" stroke-linejoin="round"/>
</g>
<g clip-path="url(#clip15_167_1707)">
<path d="M34.4203 29.7826H33.4058C33.3258 29.7826 33.2609 29.8475 33.2609 29.9275V30.942C33.2609 31.0221 33.3258 31.0869 33.4058 31.0869H34.4203C34.5003 31.0869 34.5652 31.0221 34.5652 30.942V29.9275C34.5652 29.8475 34.5003 29.7826 34.4203 29.7826Z" stroke="#3D4127" stroke-width="2" stroke-linecap="round" stroke-linejoin="round"/>
</g>
<g clip-path="url(#clip16_167_1707)">
<path d="M29.2029 29.7826H28.1884C28.1083 29.7826 28.0435 29.8475 28.0435 29.9275V30.942C28.0435 31.0221 28.1083 31.0869 28.1884 31.0869H29.2029C29.2829 31.0869 29.3478 31.0221 29.3478 30.942V29.9275C29.3478 29.8475 29.2829 29.7826 29.2029 29.7826Z" stroke="#3D4127" stroke-width="2" stroke-linecap="round" stroke-linejoin="round"/>
</g>
<g clip-path="url(#clip17_167_1707)">
<path d="M25.7246 31.5217H24.7101C24.6301 31.5217 24.5652 31.5866 24.5652 31.6667V32.6811C24.5652 32.7612 24.6301 32.8261 24.7101 32.8261H25.7246C25.8046 32.8261 25.8695 32.7612 25.8695 32.6811V31.6667C25.8695 31.5866 25.8046 31.5217 25.7246 31.5217Z" stroke="#3D4127" stroke-width="2" stroke-linecap="round" stroke-linejoin="round"/>
</g>
<g clip-path="url(#clip18_167_1707)">
<path d="M25.7246 29.7826H24.7101C24.6301 29.7826 24.5652 29.8475 24.5652 29.9275V30.942C24.5652 31.0221 24.6301 31.0869 24.7101 31.0869H25.7246C25.8046 31.0869 25.8695 31.0221 25.8695 30.942V29.9275C25.8695 29.8475 25.8046 29.7826 25.7246 29.7826Z" stroke="#3D4127" stroke-width="2" stroke-linecap="round" stroke-linejoin="round"/>
</g>
<g clip-path="url(#clip19_167_1707)">
<path d="M23.9855 31.5217H22.971C22.8909 31.5217 22.826 31.5866 22.826 31.6667V32.6811C22.826 32.7612 22.8909 32.8261 22.971 32.8261H23.9855C24.0655 32.8261 24.1304 32.7612 24.1304 32.6811V31.6667C24.1304 31.5866 24.0655 31.5217 23.9855 31.5217Z" stroke="#3D4127" stroke-width="2" stroke-linecap="round" stroke-linejoin="round"/>
</g>
<g clip-path="url(#clip20_167_1707)">
<path d="M23.9855 29.7826H22.971C22.8909 29.7826 22.826 29.8475 22.826 29.9275V30.942C22.826 31.0221 22.8909 31.0869 22.971 31.0869H23.9855C24.0655 31.0869 24.1304 31.0221 24.1304 30.942V29.9275C24.1304 29.8475 24.0655 29.7826 23.9855 29.7826Z" stroke="#3D4127" stroke-width="2" stroke-linecap="round" stroke-linejoin="round"/>
</g>
<g clip-path="url(#clip21_167_1707)">
<path d="M39.6377 28.0435H38.6232C38.5432 28.0435 38.4783 28.1083 38.4783 28.1884V29.2029C38.4783 29.2829 38.5432 29.3478 38.6232 29.3478H39.6377C39.7177 29.3478 39.7826 29.2829 39.7826 29.2029V28.1884C39.7826 28.1083 39.7177 28.0435 39.6377 28.0435Z" stroke="#3D4127" stroke-width="2" stroke-linecap="round" stroke-linejoin="round"/>
</g>
<g clip-path="url(#clip22_167_1707)">
<path d="M29.2029 28.0435H28.1884C28.1083 28.0435 28.0435 28.1083 28.0435 28.1884V29.2029C28.0435 29.2829 28.1083 29.3478 28.1884 29.3478H29.2029C29.2829 29.3478 29.3478 29.2829 29.3478 29.2029V28.1884C29.3478 28.1083 29.2829 28.0435 29.2029 28.0435Z" stroke="#3D4127" stroke-width="2" stroke-linecap="round" stroke-linejoin="round"/>
</g>
<g clip-path="url(#clip23_167_1707)">
<path d="M25.7246 33.2609H24.7101C24.6301 33.2609 24.5652 33.3258 24.5652 33.4058V34.4203C24.5652 34.5003 24.6301 34.5652 24.7101 34.5652H25.7246C25.8046 34.5652 25.8695 34.5003 25.8695 34.4203V33.4058C25.8695 33.3258 25.8046 33.2609 25.7246 33.2609Z" stroke="#3D4127" stroke-width="2" stroke-linecap="round" stroke-linejoin="round"/>
</g>
<g clip-path="url(#clip24_167_1707)">
<path d="M34.4203 26.3043H33.4058C33.3258 26.3043 33.2609 26.3692 33.2609 26.4492V27.4637C33.2609 27.5438 33.3258 27.6087 33.4058 27.6087H34.4203C34.5003 27.6087 34.5652 27.5438 34.5652 27.4637V26.4492C34.5652 26.3692 34.5003 26.3043 34.4203 26.3043Z" stroke="#3D4127" stroke-width="2" stroke-linecap="round" stroke-linejoin="round"/>
</g>
<g clip-path="url(#clip25_167_1707)">
<path d="M29.2029 26.3043H28.1884C28.1083 26.3043 28.0435 26.3692 28.0435 26.4492V27.4637C28.0435 27.5438 28.1083 27.6087 28.1884 27.6087H29.2029C29.2829 27.6087 29.3478 27.5438 29.3478 27.4637V26.4492C29.3478 26.3692 29.2829 26.3043 29.2029 26.3043Z" stroke="#3D4127" stroke-width="2" stroke-linecap="round" stroke-linejoin="round"/>
</g>
<g clip-path="url(#clip26_167_1707)">
<path d="M27.4637 26.3043H26.4492C26.3692 26.3043 26.3043 26.3692 26.3043 26.4492V27.4637C26.3043 27.5438 26.3692 27.6087 26.4492 27.6087H27.4637C27.5438 27.6087 27.6087 27.5438 27.6087 27.4637V26.4492C27.6087 26.3692 27.5438 26.3043 27.4637 26.3043Z" stroke="#3D4127" stroke-width="2" stroke-linecap="round" stroke-linejoin="round"/>
</g>
<g clip-path="url(#clip27_167_1707)">
<path d="M30.942 28.0435H29.9275C29.8475 28.0435 29.7826 28.1083 29.7826 28.1884V29.2029C29.7826 29.2829 29.8475 29.3478 29.9275 29.3478H30.942C31.0221 29.3478 31.0869 29.2829 31.0869 29.2029V28.1884C31.0869 28.1083 31.0221 28.0435 30.942 28.0435Z" stroke="#3D4127" stroke-width="2" stroke-linecap="round" stroke-linejoin="round"/>
</g>
<g clip-path="url(#clip28_167_1707)">
<path d="M39.6377 24.5652H38.6232C38.5432 24.5652 38.4783 24.6301 38.4783 24.7101V25.7246C38.4783 25.8046 38.5432 25.8695 38.6232 25.8695H39.6377C39.7177 25.8695 39.7826 25.8046 39.7826 25.7246V24.7101C39.7826 24.6301 39.7177 24.5652 39.6377 24.5652Z" stroke="#3D4127" stroke-width="2" stroke-linecap="round" stroke-linejoin="round"/>
</g>
<g clip-path="url(#clip29_167_1707)">
<path d="M22.2463 28.0435H21.2318C21.1518 28.0435 21.0869 28.1083 21.0869 28.1884V29.2029C21.0869 29.2829 21.1518 29.3478 21.2318 29.3478H22.2463C22.3264 29.3478 22.3913 29.2829 22.3913 29.2029V28.1884C22.3913 28.1083 22.3264 28.0435 22.2463 28.0435Z" stroke="#3D4127" stroke-width="2" stroke-linecap="round" stroke-linejoin="round"/>
</g>
<g clip-path="url(#clip30_167_1707)">
<path d="M37.8986 22.826H36.8841C36.804 22.826 36.7391 22.8909 36.7391 22.971V23.9855C36.7391 24.0655 36.804 24.1304 36.8841 24.1304H37.8986C37.9786 24.1304 38.0435 24.0655 38.0435 23.9855V22.971C38.0435 22.8909 37.9786 22.826 37.8986 22.826Z" stroke="#3D4127" stroke-width="2" stroke-linecap="round" stroke-linejoin="round"/>
</g>
<g clip-path="url(#clip31_167_1707)">
<path d="M34.4203 22.826H33.4058C33.3258 22.826 33.2609 22.8909 33.2609 22.971V23.9855C33.2609 24.0655 33.3258 24.1304 33.4058 24.1304H34.4203C34.5003 24.1304 34.5652 24.0655 34.5652 23.9855V22.971C34.5652 22.8909 34.5003 22.826 34.4203 22.826Z" stroke="#3D4127" stroke-width="2" stroke-linecap="round" stroke-linejoin="round"/>
</g>
<g clip-path="url(#clip32_167_1707)">
<path d="M30.942 22.826H29.9275C29.8475 22.826 29.7826 22.8909 29.7826 22.971V23.9855C29.7826 24.0655 29.8475 24.1304 29.9275 24.1304H30.942C31.0221 24.1304 31.0869 24.0655 31.0869 23.9855V22.971C31.0869 22.8909 31.0221 22.826 30.942 22.826Z" stroke="#3D4127" stroke-width="2" stroke-linecap="round" stroke-linejoin="round"/>
</g>
<g clip-path="url(#clip33_167_1707)">
<path d="M27.4637 24.5652H26.4492C26.3692 24.5652 26.3043 24.6301 26.3043 24.7101V25.7246C26.3043 25.8046 26.3692 25.8695 26.4492 25.8695H27.4637C27.5438 25.8695 27.6087 25.8046 27.6087 25.7246V24.7101C27.6087 24.6301 27.5438 24.5652 27.4637 24.5652Z" stroke="#3D4127" stroke-width="2" stroke-linecap="round" stroke-linejoin="round"/>
</g>
<g clip-path="url(#clip34_167_1707)">
<path d="M25.7246 24.5652H24.7101C24.6301 24.5652 24.5652 24.6301 24.5652 24.7101V25.7246C24.5652 25.8046 24.6301 25.8695 24.7101 25.8695H25.7246C25.8046 25.8695 25.8695 25.8046 25.8695 25.7246V24.7101C25.8695 24.6301 25.8046 24.5652 25.7246 24.5652Z" stroke="#3D4127" stroke-width="2" stroke-linecap="round" stroke-linejoin="round"/>
</g>
<g clip-path="url(#clip35_167_1707)">
<path d="M25.7246 26.3043H24.7101C24.6301 26.3043 24.5652 26.3692 24.5652 26.4492V27.4637C24.5652 27.5438 24.6301 27.6087 24.7101 27.6087H25.7246C25.8046 27.6087 25.8695 27.5438 25.8695 27.4637V26.4492C25.8695 26.3692 25.8046 26.3043 25.7246 26.3043Z" stroke="#3D4127" stroke-width="2" stroke-linecap="round" stroke-linejoin="round"/>
</g>
<g clip-path="url(#clip36_167_1707)">
<path d="M22.2463 24.5652H21.2318C21.1518 24.5652 21.0869 24.6301 21.0869 24.7101V25.7246C21.0869 25.8046 21.1518 25.8695 21.2318 25.8695H22.2463C22.3264 25.8695 22.3913 25.8046 22.3913 25.7246V24.7101C22.3913 24.6301 22.3264 24.5652 22.2463 24.5652Z" stroke="#3D4127" stroke-width="2" stroke-linecap="round" stroke-linejoin="round"/>
</g>
<path d="M21.7391 26.0869V26.0869C21.7391 26.0869 21.7391 26.1734 21.7391 26.2802V27.6328C21.7391 27.7395 21.7391 27.826 21.7391 27.826V27.826C21.7391 27.826 21.7391 27.7395 21.7391 27.6328V26.2802C21.7391 26.1734 21.7391 26.0869 21.7391 26.0869Z" stroke="#3D4127" stroke-width="2" stroke-linecap="round" stroke-linejoin="round"/>
<path d="M25.2174 22.6086V22.6086C25.2174 22.6086 25.2174 22.6952 25.2174 22.8019V24.1545C25.2174 24.2613 25.2174 24.3478 25.2174 24.3478V24.3478C25.2174 24.3478 25.2174 24.2613 25.2174 24.1545V22.8019C25.2174 22.6952 25.2174 22.6086 25.2174 22.6086Z" stroke="#3D4127" stroke-width="2" stroke-linecap="round" stroke-linejoin="round"/>
<g clip-path="url(#clip37_167_1707)">
<path d="M39.6377 22.826H38.6232C38.5432 22.826 38.4783 22.8909 38.4783 22.971V23.9855C38.4783 24.0655 38.5432 24.1304 38.6232 24.1304H39.6377C39.7177 24.1304 39.7826 24.0655 39.7826 23.9855V22.971C39.7826 22.8909 39.7177 22.826 39.6377 22.826Z" stroke="#3D4127" stroke-width="2" stroke-linecap="round" stroke-linejoin="round"/>
</g>
<g clip-path="url(#clip38_167_1707)">
<path d="M15.1449 23.2609H3.9855C3.10505 23.2609 2.3913 23.9746 2.3913 24.8551V36.0145C2.3913 36.8949 3.10505 37.6087 3.9855 37.6087H15.1449C16.0254 37.6087 16.7391 36.8949 16.7391 36.0145V24.8551C16.7391 23.9746 16.0254 23.2609 15.1449 23.2609Z" stroke="#3D4127" stroke-width="4" stroke-linecap="round" stroke-linejoin="round"/>
</g>
<g clip-path="url(#clip39_167_1707)">
<rect width="8.41739" height="8.41739" transform="translate(5.35657 26.226)" fill="#3D4127"/>
<path d="M12.0203 27.2781H7.1102C6.7228 27.2781 6.40875 27.5921 6.40875 27.9795V32.8897C6.40875 33.2771 6.7228 33.5911 7.1102 33.5911H12.0203C12.4077 33.5911 12.7218 33.2771 12.7218 32.8897V27.9795C12.7218 27.5921 12.4077 27.2781 12.0203 27.2781Z" stroke="#3D4127" stroke-width="4" stroke-linecap="round" stroke-linejoin="round"/>
</g>
<path d="M36.0145 2.39136H24.8551C23.9746 2.39136 23.2609 3.10511 23.2609 3.98556V15.145C23.2609 16.0254 23.9746 16.7392 24.8551 16.7392H36.0145C36.8949 16.7392 37.6087 16.0254 37.6087 15.145V3.98556C37.6087 3.10511 36.8949 2.39136 36.0145 2.39136Z" stroke="#3D4127" stroke-width="4" stroke-linecap="round" stroke-linejoin="round"/>
<g clip-path="url(#clip40_167_1707)">
<rect width="8.41739" height="8.41739" transform="translate(26.2261 5.35645)" fill="#3D4127"/>
<path d="M32.8899 6.40857H27.9798C27.5924 6.40857 27.2783 6.72262 27.2783 7.11002V12.0202C27.2783 12.4076 27.5924 12.7216 27.9798 12.7216H32.8899C33.2773 12.7216 33.5914 12.4076 33.5914 12.0202V7.11002C33.5914 6.72262 33.2773 6.40857 32.8899 6.40857Z" stroke="#3D4127" stroke-width="4" stroke-linecap="round" stroke-linejoin="round"/>
</g>
<path d="M15.1449 2.39136H3.9855C3.10505 2.39136 2.3913 3.10511 2.3913 3.98556V15.145C2.3913 16.0254 3.10505 16.7392 3.9855 16.7392H15.1449C16.0254 16.7392 16.7391 16.0254 16.7391 15.145V3.98556C16.7391 3.10511 16.0254 2.39136 15.1449 2.39136Z" stroke="#3D4127" stroke-width="4" stroke-linecap="round" stroke-linejoin="round"/>
<g clip-path="url(#clip41_167_1707)">
<rect width="8.41739" height="8.41739" transform="translate(5.35657 5.35657)" fill="#3D4127"/>
<path d="M12.0203 6.40869H7.1102C6.7228 6.40869 6.40875 6.72274 6.40875 7.11014V12.0203C6.40875 12.4077 6.7228 12.7217 7.1102 12.7217H12.0203C12.4077 12.7217 12.7218 12.4077 12.7218 12.0203V7.11014C12.7218 6.72274 12.4077 6.40869 12.0203 6.40869Z" stroke="#3D4127" stroke-width="4" stroke-linecap="round" stroke-linejoin="round"/>
</g>
<defs>
<clipPath id="clip0_167_1707">
<rect width="1.73913" height="1.73913" fill="white" transform="translate(38.2609 31.3043)"/>
</clipPath>
<clipPath id="clip1_167_1707">
<rect width="1.73913" height="1.73913" fill="white" transform="translate(31.3043 24.3478)"/>
</clipPath>
<clipPath id="clip2_167_1707">
<rect width="1.73913" height="1.73913" fill="white" transform="translate(31.3043 27.826)"/>
</clipPath>
<clipPath id="clip3_167_1707">
<rect width="1.73913" height="1.73913" fill="white" transform="translate(34.7826 27.826)"/>
</clipPath>
<clipPath id="clip4_167_1707">
<rect width="1.73913" height="1.73913" fill="white" transform="translate(34.7826 24.3478)"/>
</clipPath>
<clipPath id="clip5_167_1707">
<rect width="1.73913" height="1.73913" fill="white" transform="translate(22.6086 22.6086)"/>
</clipPath>
<clipPath id="clip6_167_1707">
<rect width="1.73913" height="1.73913" fill="white" transform="translate(34.7826 26.0869)"/>
</clipPath>
<clipPath id="clip7_167_1707">
<rect width="1.73913" height="1.73913" fill="white" transform="translate(36.5217 26.0869)"/>
</clipPath>
<clipPath id="clip8_167_1707">
<rect width="1.73913" height="1.73913" fill="white" transform="translate(36.5217 27.826)"/>
</clipPath>
<clipPath id="clip9_167_1707">
<rect width="1.73913" height="1.73913" fill="white" transform="translate(27.826 33.0435)"/>
</clipPath>
<clipPath id="clip10_167_1707">
<rect width="1.73913" height="1.73913" fill="white" transform="translate(36.5217 31.3043)"/>
</clipPath>
<clipPath id="clip11_167_1707">
<rect width="1.73913" height="1.73913" fill="white" transform="translate(33.0435 31.3043)"/>
</clipPath>
<clipPath id="clip12_167_1707">
<rect width="1.73913" height="1.73913" fill="white" transform="translate(29.5652 31.3043)"/>
</clipPath>
<clipPath id="clip13_167_1707">
<rect width="1.73913" height="1.73913" fill="white" transform="translate(36.5217 29.5652)"/>
</clipPath>
<clipPath id="clip14_167_1707">
<rect width="1.73913" height="1.73913" fill="white" transform="translate(34.7826 29.5652)"/>
</clipPath>
<clipPath id="clip15_167_1707">
<rect width="1.73913" height="1.73913" fill="white" transform="translate(33.0435 29.5652)"/>
</clipPath>
<clipPath id="clip16_167_1707">
<rect width="1.73913" height="1.73913" fill="white" transform="translate(27.826 29.5652)"/>
</clipPath>
<clipPath id="clip17_167_1707">
<rect width="1.73913" height="1.73913" fill="white" transform="translate(24.3478 31.3043)"/>
</clipPath>
<clipPath id="clip18_167_1707">
<rect width="1.73913" height="1.73913" fill="white" transform="translate(24.3478 29.5652)"/>
</clipPath>
<clipPath id="clip19_167_1707">
<rect width="1.73913" height="1.73913" fill="white" transform="translate(22.6086 31.3043)"/>
</clipPath>
<clipPath id="clip20_167_1707">
<rect width="1.73913" height="1.73913" fill="white" transform="translate(22.6086 29.5652)"/>
</clipPath>
<clipPath id="clip21_167_1707">
<rect width="1.73913" height="1.73913" fill="white" transform="translate(38.2609 27.826)"/>
</clipPath>
<clipPath id="clip22_167_1707">
<rect width="1.73913" height="1.73913" fill="white" transform="translate(27.826 27.826)"/>
</clipPath>
<clipPath id="clip23_167_1707">
<rect width="1.73913" height="1.73913" fill="white" transform="translate(24.3478 33.0435)"/>
</clipPath>
<clipPath id="clip24_167_1707">
<rect width="1.73913" height="1.73913" fill="white" transform="translate(33.0435 26.0869)"/>
</clipPath>
<clipPath id="clip25_167_1707">
<rect width="1.73913" height="1.73913" fill="white" transform="translate(27.826 26.0869)"/>
</clipPath>
<clipPath id="clip26_167_1707">
<rect width="1.73913" height="1.73913" fill="white" transform="translate(26.0869 26.0869)"/>
</clipPath>
<clipPath id="clip27_167_1707">
<rect width="1.73913" height="1.73913" fill="white" transform="translate(29.5652 27.826)"/>
</clipPath>
<clipPath id="clip28_167_1707">
<rect width="1.73913" height="1.73913" fill="white" transform="translate(38.2609 24.3478)"/>
</clipPath>
<clipPath id="clip29_167_1707">
<rect width="1.73913" height="1.73913" fill="white" transform="translate(20.8695 27.826)"/>
</clipPath>
<clipPath id="clip30_167_1707">
<rect width="1.73913" height="1.73913" fill="white" transform="translate(36.5217 22.6086)"/>
</clipPath>
<clipPath id="clip31_167_1707">
<rect width="1.73913" height="1.73913" fill="white" transform="translate(33.0435 22.6086)"/>
</clipPath>
<clipPath id="clip32_167_1707">
<rect width="1.73913" height="1.73913" fill="white" transform="translate(29.5652 22.6086)"/>
</clipPath>
<clipPath id="clip33_167_1707">
<rect width="1.73913" height="1.73913" fill="white" transform="translate(26.0869 24.3478)"/>
</clipPath>
<clipPath id="clip34_167_1707">
<rect width="1.73913" height="1.73913" fill="white" transform="translate(24.3478 24.3478)"/>
</clipPath>
<clipPath id="clip35_167_1707">
<rect width="1.73913" height="1.73913" fill="white" transform="translate(24.3478 26.0869)"/>
</clipPath>
<clipPath id="clip36_167_1707">
<rect width="1.73913" height="1.73913" fill="white" transform="translate(20.8695 24.3478)"/>
</clipPath>
<clipPath id="clip37_167_1707">
<rect width="1.73913" height="1.73913" fill="white" transform="translate(38.2609 22.6086)"/>
</clipPath>
<clipPath id="clip38_167_1707">
<rect width="19.1304" height="19.1304" fill="white" transform="translate(0 20.8695)"/>
</clipPath>
<clipPath id="clip39_167_1707">
<rect width="8.41739" height="8.41739" fill="white" transform="translate(5.35657 26.226)"/>
</clipPath>
<clipPath id="clip40_167_1707">
<rect width="8.41739" height="8.41739" fill="white" transform="translate(26.2261 5.35645)"/>
</clipPath>
<clipPath id="clip41_167_1707">
<rect width="8.41739" height="8.41739" fill="white" transform="translate(5.35657 5.35657)"/>
</clipPath>
</defs>
</svg>
