<svg width="53" height="40" viewBox="0 0 53 40" fill="none" xmlns="http://www.w3.org/2000/svg">
<path d="M41 38V34C41 31.8783 40.2098 29.8434 38.8033 28.3431C37.3968 26.8429 35.4891 26 33.5 26H18.5C16.5109 26 14.6032 26.8429 13.1967 28.3431C11.7902 29.8434 11 31.8783 11 34V38M33.5 10C33.5 14.4183 30.1421 18 26 18C21.8579 18 18.5 14.4183 18.5 10C18.5 5.58172 21.8579 2 26 2C30.1421 2 33.5 5.58172 33.5 10Z" stroke="#3D4127" stroke-width="4" stroke-linecap="round" stroke-linejoin="round"/>
<path d="M51 27V25.3333C51 24.4493 50.6839 23.6014 50.1213 22.9763C49.5587 22.3512 48.7956 22 48 22H42C41.2044 22 40.4413 22.3512 39.8787 22.9763C39.3161 23.6014 39 24.4493 39 25.3333V27M48 15.3333C48 17.1743 46.6569 18.6667 45 18.6667C43.3431 18.6667 42 17.1743 42 15.3333C42 13.4924 43.3431 12 45 12C46.6569 12 48 13.4924 48 15.3333Z" stroke="#3D4127" stroke-width="4" stroke-linecap="round" stroke-linejoin="round"/>
<path d="M14 27V25.3333C14 24.4493 13.6839 23.6014 13.1213 22.9763C12.5587 22.3512 11.7956 22 11 22H5C4.20435 22 3.44129 22.3512 2.87868 22.9763C2.31607 23.6014 2 24.4493 2 25.3333V27M11 15.3333C11 17.1743 9.65685 18.6667 8 18.6667C6.34315 18.6667 5 17.1743 5 15.3333C5 13.4924 6.34315 12 8 12C9.65685 12 11 13.4924 11 15.3333Z" stroke="#3D4127" stroke-width="4" stroke-linecap="round" stroke-linejoin="round"/>
</svg>
