<svg width="27" height="23" viewBox="0 0 27 23" fill="none" xmlns="http://www.w3.org/2000/svg">
<path d="M0 11.1621C0 10.541 0.222656 10.0137 0.667969 9.58008L9.58008 0.667969C10.0371 0.222656 10.541 0 11.0918 0C11.7129 0 12.2168 0.199219 12.6035 0.597656C13.002 0.984375 13.2012 1.46484 13.2012 2.03906C13.2012 2.36719 13.1367 2.66016 13.0078 2.91797C12.8789 3.16406 12.7148 3.38086 12.5156 3.56836L9.7207 6.39844L5.04492 10.6699L4.13086 9.33398L9.66797 9.01758H24.6973C25.377 9.01758 25.916 9.2168 26.3145 9.61523C26.7246 10.0137 26.9297 10.5293 26.9297 11.1621C26.9297 11.8066 26.7246 12.3281 26.3145 12.7266C25.916 13.125 25.377 13.3242 24.6973 13.3242H9.66797L4.13086 13.0078L5.04492 11.6719L9.7207 15.9434L12.5156 18.7559C12.7148 18.9434 12.8789 19.166 13.0078 19.4238C13.1367 19.6699 13.2012 19.957 13.2012 20.2852C13.2012 20.8594 13.002 21.3457 12.6035 21.7441C12.2168 22.1309 11.7129 22.3242 11.0918 22.3242C10.541 22.3242 10.0371 22.1016 9.58008 21.6562L0.667969 12.7441C0.222656 12.3223 0 11.7949 0 11.1621Z" fill="#3D4127"/>
</svg>
